<?xml version="1.0" encoding="UTF-8"?>
<svg width="501px" height="63px" viewBox="0 0 501 63" version="1.1" xmlns="http://www.w3.org/2000/svg" xmlns:xlink="http://www.w3.org/1999/xlink">
    <title>Welcome_Name_04</title>
    <g id="Page-1" stroke="none" stroke-width="1" fill="none" fill-rule="evenodd">
        <path d="M7.8089705,49 L7.8089705,2.45454545 L0.786243231,2.45454545 L0.786243231,49 L7.8089705,49 Z M17.563537,18.3181818 C18.7302037,17.3787879 19.7453552,16.2575758 20.6089916,14.9545455 C21.472628,13.6515152 22.1430825,12.2916667 22.6203552,10.875 C23.097628,9.45833333 23.3362643,8.10606061 23.3362643,6.81818182 L23.3362643,6.81818182 L23.3362643,2.45454545 L17.5180825,2.45454545 L17.5180825,6.88636364 C17.5180825,8.65909091 17.188537,10.280303 16.5294461,11.75 C15.8703552,13.219697 15.0938401,14.6060606 14.1999007,15.9090909 L14.1999007,15.9090909 L17.563537,18.3181818 Z M35.6726845,49 L35.6726845,27.4772727 C35.6726845,25.9015152 36.00223,24.5151515 36.6613209,23.3181818 C37.3204118,22.1212121 38.1916239,21.1856061 39.2749573,20.5113636 C40.3582906,19.8371212 41.5438967,19.5 42.8317755,19.5 C44.7257149,19.5 46.2635936,20.0757576 47.4454118,21.2272727 C48.62723,22.3787879 49.2181391,23.9015152 49.2181391,25.7954545 L49.2181391,25.7954545 L49.2181391,49 L55.9908664,49 L55.9908664,26.75 C55.9908664,24.6287879 56.6045027,22.8901515 57.8317755,21.5340909 C59.0590482,20.1780303 60.7787452,19.5 62.9908664,19.5 C64.7787452,19.5 66.3166239,20.030303 67.6045027,21.0909091 C68.8923815,22.1515152 69.5363209,23.8636364 69.5363209,26.2272727 L69.5363209,26.2272727 L69.5363209,49 L76.3317755,49 L76.3317755,25.5909091 C76.3317755,21.5909091 75.3279876,18.5984848 73.3204118,16.6136364 C71.3128361,14.6287879 68.7257149,13.6363636 65.5590482,13.6363636 C63.0438967,13.6363636 60.87723,14.1931818 59.0590482,15.3068182 C57.2408664,16.4204545 55.9151088,17.9090909 55.0817755,19.7727273 L55.0817755,19.7727273 L54.7181391,19.7727273 C53.9605633,17.8636364 52.7901088,16.3636364 51.2067755,15.2727273 C49.6234421,14.1818182 47.6651088,13.6363636 45.3317755,13.6363636 C43.0287452,13.6363636 41.0514724,14.1780303 39.3999573,15.2613636 C37.7484421,16.344697 36.5590482,17.8484848 35.8317755,19.7727273 L35.8317755,19.7727273 L35.3999573,19.7727273 L35.3999573,14.0909091 L28.87723,14.0909091 L28.87723,49 L35.6726845,49 Z M112.527221,49.7727273 C114.451464,49.7727273 116.102979,49.4924242 117.481767,48.9318182 C118.860554,48.3712121 119.989342,47.6666667 120.86813,46.8181818 C121.746918,45.969697 122.406009,45.1060606 122.845403,44.2272727 L122.845403,44.2272727 L123.11813,44.2272727 L123.11813,49 L129.754494,49 L129.754494,25.8181818 C129.754494,23.2727273 129.3151,21.2007576 128.436312,19.6022727 C127.557524,18.0037879 126.432524,16.7727273 125.061312,15.9090909 C123.6901,15.0454545 122.220403,14.4507576 120.652221,14.125 C119.084039,13.7992424 117.602979,13.6363636 116.209039,13.6363636 C114.102979,13.6363636 112.095403,13.9356061 110.186312,14.5340909 C108.277221,15.1325758 106.591615,16.0871212 105.129494,17.3977273 C103.667373,18.7083333 102.557524,20.4242424 101.799948,22.5454545 L101.799948,22.5454545 L108.186312,24 C108.686312,22.7727273 109.591615,21.655303 110.902221,20.6477273 C112.212827,19.6401515 114.01207,19.1363636 116.299948,19.1363636 C118.496918,19.1363636 120.152221,19.6818182 121.265857,20.7727273 C122.379494,21.8636364 122.936312,23.4015152 122.936312,25.3863636 L122.936312,25.3863636 L122.936312,25.5454545 C122.936312,26.3636364 122.640857,26.9545455 122.049948,27.3181818 C121.459039,27.6818182 120.51207,27.9431818 119.209039,28.1022727 C117.906009,28.2613636 116.209039,28.4621212 114.11813,28.7045455 C112.466615,28.9015152 110.845403,29.1893939 109.254494,29.5681818 C107.663585,29.9469697 106.224191,30.5075758 104.936312,31.25 C103.648433,31.9924242 102.625706,33 101.86813,34.2727273 C101.110554,35.5454545 100.731767,37.1666667 100.731767,39.1363636 C100.731767,41.4242424 101.250706,43.3560606 102.288585,44.9318182 C103.326464,46.5075758 104.739342,47.7083333 106.527221,48.5340909 C108.3151,49.3598485 110.3151,49.7727273 112.527221,49.7727273 Z M114.004494,44.3181818 C112.080251,44.3181818 110.496918,43.8901515 109.254494,43.0340909 C108.01207,42.1780303 107.390857,40.9090909 107.390857,39.2272727 C107.390857,38.0151515 107.712827,37.0416667 108.356767,36.3068182 C109.000706,35.5719697 109.864342,35.0075758 110.947676,34.6136364 C112.031009,34.219697 113.231767,33.9393939 114.549948,33.7727273 C115.110554,33.6969697 115.807524,33.6022727 116.640857,33.4886364 C117.474191,33.375 118.330251,33.2462121 119.209039,33.1022727 C120.087827,32.9583333 120.871918,32.7840909 121.561312,32.5795455 C122.250706,32.375 122.716615,32.1515152 122.959039,31.9090909 L122.959039,31.9090909 L122.959039,36.4090909 C122.959039,37.7878788 122.606767,39.0795455 121.902221,40.2840909 C121.197676,41.4886364 120.174948,42.4621212 118.834039,43.2045455 C117.49313,43.9469697 115.883282,44.3181818 114.004494,44.3181818 Z M174.772632,49.7727273 C178.499905,49.7727273 181.749905,49.0568182 184.522632,47.625 C187.29536,46.1931818 189.446875,44.2234848 190.977178,41.7159091 C192.507481,39.2083333 193.272632,36.3257576 193.272632,33.0681818 L193.272632,33.0681818 L193.272632,2.45454545 L186.227178,2.45454545 L186.227178,32.5 C186.227178,34.6060606 185.768845,36.4772727 184.852178,38.1136364 C183.935511,39.75 182.617329,41.0340909 180.897632,41.9659091 C179.177935,42.8977273 177.136269,43.3636364 174.772632,43.3636364 C172.424148,43.3636364 170.393845,42.8977273 168.681723,41.9659091 C166.969602,41.0340909 165.647632,39.75 164.715814,38.1136364 C163.783996,36.4772727 163.318087,34.6060606 163.318087,32.5 L163.318087,32.5 L163.318087,2.45454545 L156.29536,2.45454545 L156.29536,33.0681818 C156.29536,36.3257576 157.060511,39.2083333 158.590814,41.7159091 C160.121117,44.2234848 162.272632,46.1931818 165.04536,47.625 C167.818087,49.0568182 171.060511,49.7727273 174.772632,49.7727273 Z M210.518071,49 L210.518071,2.45454545 L203.495344,2.45454545 L203.495344,49 L210.518071,49 Z M252.763483,49 C257.490755,49 261.521058,48.0643939 264.854392,46.1931818 C268.187725,44.3219697 270.736968,41.6439394 272.502119,38.1590909 C274.267271,34.6742424 275.149846,30.5075758 275.149846,25.6590909 C275.149846,20.8257576 274.274846,16.6780303 272.524846,13.2159091 C270.774846,9.75378788 268.263483,7.09469697 264.990755,5.23863636 C261.718028,3.38257576 257.801361,2.45454545 253.240755,2.45454545 L253.240755,2.45454545 L237.695301,2.45454545 L237.695301,49 L252.763483,49 Z M252.377119,42.8636364 L244.718028,42.8636364 L244.718028,8.59090909 L252.808937,8.59090909 C256.202877,8.59090909 259.043786,9.25 261.331664,10.5681818 C263.619543,11.8863636 265.343028,13.8181818 266.502119,16.3636364 C267.66121,18.9090909 268.240755,22.0075758 268.240755,25.6590909 C268.240755,29.3409091 267.657422,32.4583333 266.490755,35.0113636 C265.324089,37.5643939 263.566513,39.5113636 261.218028,40.8522727 C258.869543,42.1931818 255.922574,42.8636364 252.377119,42.8636364 L252.377119,42.8636364 Z M297.57713,49.7045455 C300.122585,49.7045455 302.391524,49.3143939 304.383948,48.5340909 C306.376373,47.7537879 308.035463,46.655303 309.361221,45.2386364 C310.686979,43.8219697 311.607433,42.1666667 312.122585,40.2727273 L312.122585,40.2727273 L305.690766,39.1136364 C305.281676,40.2045455 304.690766,41.1212121 303.918039,41.8636364 C303.145312,42.6060606 302.228645,43.1628788 301.168039,43.5340909 C300.107433,43.905303 298.933191,44.0909091 297.645312,44.0909091 C295.660463,44.0909091 293.925615,43.6628788 292.440766,42.8068182 C290.955918,41.9507576 289.800615,40.7045455 288.974857,39.0681818 C288.259201,37.65 287.853662,35.9700673 287.758241,34.0283838 L287.742,33.591 L312.554403,33.5909091 L312.554403,31.1818182 C312.554403,28.0151515 312.13016,25.3219697 311.281676,23.1022727 C310.433191,20.8825758 309.2741,19.0757576 307.804403,17.6818182 C306.334706,16.2878788 304.675615,15.2651515 302.82713,14.6136364 C300.978645,13.9621212 299.069554,13.6363636 297.099857,13.6363636 C293.857433,13.6363636 291.027888,14.4015152 288.611221,15.9318182 C286.194554,17.4621212 284.315766,19.5909091 282.974857,22.3181818 C281.633948,25.0454545 280.963494,28.1969697 280.963494,31.7727273 C280.963494,35.3939394 281.633948,38.5492424 282.974857,41.2386364 C284.315766,43.9280303 286.224857,46.0113636 288.70213,47.4886364 C291.179403,48.9659091 294.137736,49.7045455 297.57713,49.7045455 Z M287.763386,28.3410436 C287.862992,26.899229 288.236512,25.5469114 288.883948,24.2840909 C289.6491,22.7916667 290.740009,21.5795455 292.156676,20.6477273 C293.573342,19.7159091 295.236221,19.25 297.145312,19.25 C298.902888,19.25 300.436979,19.6515152 301.747585,20.4545455 C303.058191,21.2575758 304.07713,22.3522727 304.804403,23.7386364 C305.531676,25.125 305.895312,26.7121212 305.895312,28.5 L305.895312,28.5 L287.755,28.5 L287.763386,28.3410436 Z M331.899877,49.7045455 C334.718059,49.7045455 337.19912,49.2424242 339.343059,48.3181818 C341.486999,47.3939394 343.161241,46.1174242 344.365786,44.4886364 C345.570332,42.8598485 346.172605,41 346.172605,38.9090909 C346.172605,36.4393939 345.384726,34.4318182 343.808968,32.8863636 C342.233211,31.3409091 339.839271,30.1969697 336.62715,29.4545455 L336.62715,29.4545455 L331.081696,28.1818182 C329.157453,27.7272727 327.763514,27.1439394 326.899877,26.4318182 C326.036241,25.719697 325.604423,24.780303 325.604423,23.6136364 C325.604423,22.2651515 326.248362,21.1628788 327.536241,20.3068182 C328.82412,19.4507576 330.43018,19.0227273 332.354423,19.0227273 C333.763514,19.0227273 334.937756,19.25 335.87715,19.7045455 C336.816544,20.1590909 337.562756,20.7424242 338.115786,21.4545455 C338.668817,22.1666667 339.07412,22.9166667 339.331696,23.7045455 L339.331696,23.7045455 L345.490786,22.6136364 C344.793817,19.8863636 343.361999,17.7083333 341.195332,16.0795455 C339.028665,14.4507576 336.058968,13.6363636 332.286241,13.6363636 C329.665029,13.6363636 327.339271,14.0719697 325.308968,14.9431818 C323.278665,15.8143939 321.687756,17.0227273 320.536241,18.5681818 C319.384726,20.1136364 318.808968,21.9166667 318.808968,23.9772727 C318.808968,26.4621212 319.585483,28.5151515 321.138514,30.1363636 C322.691544,31.7575758 325.096847,32.9393939 328.354423,33.6818182 L328.354423,33.6818182 L334.263514,34.9772727 C335.93018,35.3560606 337.168817,35.9166667 337.979423,36.6590909 C338.790029,37.4015152 339.195332,38.3181818 339.195332,39.4090909 C339.195332,40.7575758 338.528665,41.8977273 337.195332,42.8295455 C335.861999,43.7613636 334.081696,44.2272727 331.854423,44.2272727 C329.808968,44.2272727 328.149877,43.7916667 326.87715,42.9204545 C325.604423,42.0492424 324.763514,40.7575758 324.354423,39.0454545 L324.354423,39.0454545 L317.786241,40.0454545 C318.346847,43.1363636 319.861999,45.5189394 322.331696,47.1931818 C324.801393,48.8674242 327.990786,49.7045455 331.899877,49.7045455 Z M357.054474,8.70454545 C358.236292,8.70454545 359.247656,8.30681818 360.088565,7.51136364 C360.929474,6.71590909 361.349928,5.76515152 361.349928,4.65909091 C361.349928,3.53787879 360.929474,2.57954545 360.088565,1.78409091 C359.247656,0.988636364 358.236292,0.590909091 357.054474,0.590909091 C355.872656,0.590909091 354.861292,0.988636364 354.020383,1.78409091 C353.179474,2.57954545 352.759019,3.53787879 352.759019,4.65909091 C352.759019,5.76515152 353.179474,6.71590909 354.020383,7.51136364 C354.861292,8.30681818 355.872656,8.70454545 357.054474,8.70454545 Z M360.41811,49 L360.41811,14.0909091 L353.622656,14.0909091 L353.622656,49 L360.41811,49 Z M383.386338,62.75 C386.356035,62.75 389.026489,62.2878788 391.397701,61.3636364 C393.768913,60.4393939 395.651489,59.0189394 397.045428,57.1022727 C398.439368,55.1856061 399.136338,52.7424242 399.136338,49.7727273 L399.136338,49.7727273 L399.136338,14.0909091 L392.477247,14.0909091 L392.477247,19.75 L391.977247,19.75 C391.568156,19.0227273 390.98861,18.1818182 390.23861,17.2272727 C389.48861,16.2727273 388.446944,15.4356061 387.11361,14.7159091 C385.780277,13.9962121 384.030277,13.6363636 381.86361,13.6363636 C379.06058,13.6363636 376.553004,14.344697 374.340883,15.7613636 C372.128762,17.1780303 370.390125,19.2121212 369.124974,21.8636364 C367.859822,24.5151515 367.227247,27.6969697 367.227247,31.4090909 C367.227247,35.1212121 367.867398,38.2462121 369.147701,40.7840909 C370.428004,43.3219697 372.170428,45.2386364 374.374974,46.5340909 C376.579519,47.8295455 379.06058,48.4772727 381.818156,48.4772727 C383.954519,48.4772727 385.689368,48.1439394 387.022701,47.4772727 C388.356035,46.8106061 389.405277,46.0227273 390.170428,45.1136364 C390.93558,44.2045455 391.522701,43.3787879 391.931792,42.6363636 L391.931792,42.6363636 L392.36361,42.6363636 L392.36361,49.5 C392.36361,52.1969697 391.522701,54.1666667 389.840883,55.4090909 C388.159065,56.6515152 386.030277,57.2727273 383.454519,57.2727273 C381.575731,57.2727273 380.041641,57.0075758 378.852247,56.4772727 C377.662853,55.9469697 376.723459,55.3106061 376.034065,54.5681818 C375.344671,53.8257576 374.795428,53.1363636 374.386338,52.5 L374.386338,52.5 L368.545428,54.9090909 C369.166641,56.3030303 370.106035,57.594697 371.36361,58.7840909 C372.621186,59.9734848 374.246186,60.9318182 376.23861,61.6590909 C378.231035,62.3863636 380.61361,62.75 383.386338,62.75 Z M383.318156,42.8409091 C381.303004,42.8409091 379.609822,42.3560606 378.23861,41.3863636 C376.867398,40.4166667 375.833307,39.0681818 375.136338,37.3409091 C374.439368,35.6136364 374.090883,33.6060606 374.090883,31.3181818 C374.090883,29.0909091 374.43558,27.0757576 375.124974,25.2727273 C375.814368,23.469697 376.840883,22.0416667 378.204519,20.9886364 C379.568156,19.9356061 381.272701,19.4090909 383.318156,19.4090909 C385.303004,19.4090909 386.969671,19.9128788 388.318156,20.9204545 C389.666641,21.9280303 390.689368,23.3257576 391.386338,25.1136364 C392.083307,26.9015152 392.431792,28.969697 392.431792,31.3181818 C392.431792,33.7272727 392.079519,35.7916667 391.374974,37.5113636 C390.670428,39.2310606 389.640125,40.5492424 388.284065,41.4659091 C386.928004,42.3825758 385.272701,42.8409091 383.318156,42.8409091 Z M414.25455,49 L414.25455,28.2727273 C414.25455,26.4242424 414.606823,24.844697 415.311369,23.5340909 C416.015914,22.2234848 416.978035,21.2272727 418.197732,20.5454545 C419.417429,19.8636364 420.815157,19.5227273 422.390914,19.5227273 C424.693944,19.5227273 426.50455,20.2386364 427.822732,21.6704545 C429.140914,23.1022727 429.800005,25.0833333 429.800005,27.6136364 L429.800005,27.6136364 L429.800005,49 L436.59546,49 L436.59546,26.7954545 C436.59546,23.9166667 436.103035,21.5 435.118187,19.5454545 C434.133338,17.5909091 432.746975,16.1174242 430.959096,15.125 C429.171217,14.1325758 427.087884,13.6363636 424.709096,13.6363636 C422.087884,13.6363636 419.917429,14.1969697 418.197732,15.3181818 C416.478035,16.4393939 415.216672,17.9242424 414.413641,19.7727273 L414.413641,19.7727273 L413.981823,19.7727273 L413.981823,14.0909091 L407.459096,14.0909091 L407.459096,49 L414.25455,49 Z M459.740962,49.7045455 C462.286416,49.7045455 464.555356,49.3143939 466.54778,48.5340909 C468.540204,47.7537879 470.199295,46.655303 471.525053,45.2386364 C472.85081,43.8219697 473.771265,42.1666667 474.286416,40.2727273 L474.286416,40.2727273 L467.854598,39.1136364 C467.445507,40.2045455 466.854598,41.1212121 466.081871,41.8636364 C465.309144,42.6060606 464.392477,43.1628788 463.331871,43.5340909 C462.271265,43.905303 461.097022,44.0909091 459.809144,44.0909091 C457.824295,44.0909091 456.089447,43.6628788 454.604598,42.8068182 C453.11975,41.9507576 451.964447,40.7045455 451.138689,39.0681818 C450.423033,37.65 450.017494,35.9700673 449.922073,34.0283838 L449.906,33.591 L474.718235,33.5909091 L474.718235,31.1818182 C474.718235,28.0151515 474.293992,25.3219697 473.445507,23.1022727 C472.597022,20.8825758 471.437932,19.0757576 469.968235,17.6818182 C468.498538,16.2878788 466.839447,15.2651515 464.990962,14.6136364 C463.142477,13.9621212 461.233386,13.6363636 459.263689,13.6363636 C456.021265,13.6363636 453.191719,14.4015152 450.775053,15.9318182 C448.358386,17.4621212 446.479598,19.5909091 445.138689,22.3181818 C443.79778,25.0454545 443.127325,28.1969697 443.127325,31.7727273 C443.127325,35.3939394 443.79778,38.5492424 445.138689,41.2386364 C446.479598,43.9280303 448.388689,46.0113636 450.865962,47.4886364 C453.343235,48.9659091 456.301568,49.7045455 459.740962,49.7045455 Z M449.927218,28.3410436 C450.026823,26.899229 450.400344,25.5469114 451.04778,24.2840909 C451.812932,22.7916667 452.903841,21.5795455 454.320507,20.6477273 C455.737174,19.7159091 457.400053,19.25 459.309144,19.25 C461.066719,19.25 462.60081,19.6515152 463.911416,20.4545455 C465.222022,21.2575758 466.240962,22.3522727 466.968235,23.7386364 C467.695507,25.125 468.059144,26.7121212 468.059144,28.5 L468.059144,28.5 L449.919,28.5 L449.927218,28.3410436 Z M489.090982,49 L489.090982,27.6818182 C489.090982,26.1666667 489.454618,24.8143939 490.181891,23.625 C490.909164,22.4356061 491.8978,21.5037879 493.1478,20.8295455 C494.3978,20.155303 495.82583,19.8181818 497.431891,19.8181818 C498.128861,19.8181818 498.82583,19.8674242 499.5228,19.9659091 C500.21977,20.0643939 500.704618,20.1515152 500.977345,20.2272727 L500.977345,20.2272727 L500.977345,13.7272727 C500.644012,13.6818182 500.185679,13.6439394 499.602345,13.6136364 C499.019012,13.5833333 498.515224,13.5681818 498.090982,13.5681818 C496.045527,13.5681818 494.215982,14.1098485 492.602345,15.1931818 C490.988709,16.2765152 489.863709,17.7575758 489.227345,19.6363636 L489.227345,19.6363636 L488.863709,19.6363636 L488.863709,14.0909091 L482.295527,14.0909091 L482.295527,49 L489.090982,49 Z" id="I’maUIDesigner" fill="#303030" fill-rule="nonzero"></path>
    </g>
</svg>