<?xml version="1.0" encoding="UTF-8"?>
<svg width="520px" height="62px" viewBox="0 0 520 62" version="1.1" xmlns="http://www.w3.org/2000/svg" xmlns:xlink="http://www.w3.org/1999/xlink">
    <title>I’mMichaelLyons</title>
    <g id="Page-1" stroke="none" stroke-width="1" fill="none" fill-rule="evenodd">
        <path d="M7.1497922,49 L7.1497922,2.45454545 L0.12706493,2.45454545 L0.12706493,49 L7.1497922,49 Z M16.9043587,18.3181818 C18.0710254,17.3787879 19.0861769,16.2575758 19.9498133,14.9545455 C20.8134497,13.6515152 21.4839042,12.2916667 21.9611769,10.875 C22.4384497,9.45833333 22.677086,8.10606061 22.677086,6.81818182 L22.677086,6.81818182 L22.677086,2.45454545 L16.8589042,2.45454545 L16.8589042,6.88636364 C16.8589042,8.65909091 16.5293587,10.280303 15.8702678,11.75 C15.2111769,13.219697 14.4346618,14.6060606 13.5407224,15.9090909 L13.5407224,15.9090909 L16.9043587,18.3181818 Z M35.0135062,49 L35.0135062,27.4772727 C35.0135062,25.9015152 35.3430517,24.5151515 36.0021426,23.3181818 C36.6612335,22.1212121 37.5324456,21.1856061 38.615779,20.5113636 C39.6991123,19.8371212 40.8847184,19.5 42.1725972,19.5 C44.0665366,19.5 45.6044153,20.0757576 46.7862335,21.2272727 C47.9680517,22.3787879 48.5589608,23.9015152 48.5589608,25.7954545 L48.5589608,25.7954545 L48.5589608,49 L55.3316881,49 L55.3316881,26.75 C55.3316881,24.6287879 55.9453244,22.8901515 57.1725972,21.5340909 C58.3998699,20.1780303 60.1195669,19.5 62.3316881,19.5 C64.1195669,19.5 65.6574456,20.030303 66.9453244,21.0909091 C68.2332032,22.1515152 68.8771426,23.8636364 68.8771426,26.2272727 L68.8771426,26.2272727 L68.8771426,49 L75.6725972,49 L75.6725972,25.5909091 C75.6725972,21.5909091 74.6688093,18.5984848 72.6612335,16.6136364 C70.6536578,14.6287879 68.0665366,13.6363636 64.8998699,13.6363636 C62.3847184,13.6363636 60.2180517,14.1931818 58.3998699,15.3068182 C56.5816881,16.4204545 55.2559305,17.9090909 54.4225972,19.7727273 L54.4225972,19.7727273 L54.0589608,19.7727273 C53.301385,17.8636364 52.1309305,16.3636364 50.5475972,15.2727273 C48.9642638,14.1818182 47.0059305,13.6363636 44.6725972,13.6363636 C42.3695669,13.6363636 40.3922941,14.1780303 38.740779,15.2613636 C37.0892638,16.344697 35.8998699,17.8484848 35.1725972,19.7727273 L35.1725972,19.7727273 L34.740779,19.7727273 L34.740779,14.0909091 L28.2180517,14.0909091 L28.2180517,49 L35.0135062,49 Z M108.936225,49 L108.936225,15.2954545 L109.368043,15.2954545 L123.095316,48.9318182 L128.64077,48.9318182 L142.368043,15.3181818 L142.799861,15.3181818 L142.799861,49 L149.481679,49 L149.481679,2.45454545 L140.958952,2.45454545 L126.14077,38.6363636 L125.595316,38.6363636 L110.777134,2.45454545 L102.254406,2.45454545 L102.254406,49 L108.936225,49 Z M162.595349,8.70454545 C163.777167,8.70454545 164.788531,8.30681818 165.62944,7.51136364 C166.470349,6.71590909 166.890803,5.76515152 166.890803,4.65909091 C166.890803,3.53787879 166.470349,2.57954545 165.62944,1.78409091 C164.788531,0.988636364 163.777167,0.590909091 162.595349,0.590909091 C161.413531,0.590909091 160.402167,0.988636364 159.561258,1.78409091 C158.720349,2.57954545 158.299894,3.53787879 158.299894,4.65909091 C158.299894,5.76515152 158.720349,6.71590909 159.561258,7.51136364 C160.402167,8.30681818 161.413531,8.70454545 162.595349,8.70454545 Z M165.958985,49 L165.958985,14.0909091 L159.163531,14.0909091 L159.163531,49 L165.958985,49 Z M189.795394,49.7045455 C192.55297,49.7045455 194.958273,49.1969697 197.011303,48.1818182 C199.064334,47.1666667 200.704485,45.7727273 201.931758,44 C203.159031,42.2272727 203.893879,40.2121212 204.136303,37.9545455 L204.136303,37.9545455 L197.522667,37.9545455 C197.234788,39.2121212 196.731,40.2878788 196.011303,41.1818182 C195.291606,42.0757576 194.405243,42.7613636 193.352213,43.2386364 C192.299182,43.7159091 191.128728,43.9545455 189.840849,43.9545455 C187.916606,43.9545455 186.246152,43.4469697 184.829485,42.4318182 C183.412819,41.4166667 182.318122,39.9848485 181.545394,38.1363636 C180.772667,36.2878788 180.386303,34.0909091 180.386303,31.5454545 C180.386303,29.0606061 180.780243,26.905303 181.568122,25.0795455 C182.356,23.2537879 183.458273,21.844697 184.87494,20.8522727 C186.291606,19.8598485 187.946909,19.3636364 189.840849,19.3636364 C192.007516,19.3636364 193.738576,19.9545455 195.034031,21.1363636 C196.329485,22.3181818 197.159031,23.7272727 197.522667,25.3636364 L197.522667,25.3636364 L204.136303,25.3636364 C203.893879,23.0151515 203.132516,20.9621212 201.852213,19.2045455 C200.571909,17.4469697 198.893879,16.0795455 196.818122,15.1022727 C194.742364,14.125 192.378728,13.6363636 189.727213,13.6363636 C186.439334,13.6363636 183.583273,14.4015152 181.159031,15.9318182 C178.734788,17.4621212 176.856,19.5871212 175.522667,22.3068182 C174.189334,25.0265152 173.522667,28.1590909 173.522667,31.7045455 C173.522667,35.2045455 174.174182,38.3106061 175.477213,41.0227273 C176.780243,43.7348485 178.647667,45.8598485 181.079485,47.3977273 C183.511303,48.9356061 186.416606,49.7045455 189.795394,49.7045455 Z M218.231796,49 L218.231796,28.2727273 C218.231796,26.4242424 218.591644,24.844697 219.311341,23.5340909 C220.031038,22.2234848 221.023462,21.2272727 222.288614,20.5454545 C223.553765,19.8636364 224.989371,19.5227273 226.595432,19.5227273 C228.943917,19.5227273 230.77725,20.2310606 232.095432,21.6477273 C233.413614,23.0643939 234.072705,25.0530303 234.072705,27.6136364 L234.072705,27.6136364 L234.072705,49 L240.868159,49 L240.868159,26.7954545 C240.868159,23.8863636 240.371947,21.4583333 239.379523,19.5113636 C238.387099,17.5643939 236.993159,16.0984848 235.197705,15.1136364 C233.40225,14.1287879 231.307553,13.6363636 228.913614,13.6363636 C226.201493,13.6363636 224.004523,14.1893939 222.322705,15.2954545 C220.640887,16.4015152 219.390887,17.8939394 218.572705,19.7727273 L218.572705,19.7727273 L218.140887,19.7727273 L218.140887,2.45454545 L211.436341,2.45454545 L211.436341,49 L218.231796,49 Z M259.322748,49.7727273 C261.246991,49.7727273 262.898506,49.4924242 264.277294,48.9318182 C265.656081,48.3712121 266.784869,47.6666667 267.663657,46.8181818 C268.542445,45.969697 269.201536,45.1060606 269.64093,44.2272727 L269.64093,44.2272727 L269.913657,44.2272727 L269.913657,49 L276.550021,49 L276.550021,25.8181818 C276.550021,23.2727273 276.110627,21.2007576 275.231839,19.6022727 C274.353051,18.0037879 273.228051,16.7727273 271.856839,15.9090909 C270.485627,15.0454545 269.01593,14.4507576 267.447748,14.125 C265.879566,13.7992424 264.398506,13.6363636 263.004566,13.6363636 C260.898506,13.6363636 258.89093,13.9356061 256.981839,14.5340909 C255.072748,15.1325758 253.387142,16.0871212 251.925021,17.3977273 C250.4629,18.7083333 249.353051,20.4242424 248.595475,22.5454545 L248.595475,22.5454545 L254.981839,24 C255.481839,22.7727273 256.387142,21.655303 257.697748,20.6477273 C259.008354,19.6401515 260.807597,19.1363636 263.095475,19.1363636 C265.292445,19.1363636 266.947748,19.6818182 268.061384,20.7727273 C269.175021,21.8636364 269.731839,23.4015152 269.731839,25.3863636 L269.731839,25.3863636 L269.731839,25.5454545 C269.731839,26.3636364 269.436384,26.9545455 268.845475,27.3181818 C268.254566,27.6818182 267.307597,27.9431818 266.004566,28.1022727 C264.701536,28.2613636 263.004566,28.4621212 260.913657,28.7045455 C259.262142,28.9015152 257.64093,29.1893939 256.050021,29.5681818 C254.459112,29.9469697 253.019718,30.5075758 251.731839,31.25 C250.44396,31.9924242 249.421233,33 248.663657,34.2727273 C247.906081,35.5454545 247.527294,37.1666667 247.527294,39.1363636 C247.527294,41.4242424 248.046233,43.3560606 249.084112,44.9318182 C250.121991,46.5075758 251.534869,47.7083333 253.322748,48.5340909 C255.110627,49.3598485 257.110627,49.7727273 259.322748,49.7727273 Z M260.800021,44.3181818 C258.875778,44.3181818 257.292445,43.8901515 256.050021,43.0340909 C254.807597,42.1780303 254.186384,40.9090909 254.186384,39.2272727 C254.186384,38.0151515 254.508354,37.0416667 255.152294,36.3068182 C255.796233,35.5719697 256.659869,35.0075758 257.743203,34.6136364 C258.826536,34.219697 260.027294,33.9393939 261.345475,33.7727273 C261.906081,33.6969697 262.603051,33.6022727 263.436384,33.4886364 C264.269718,33.375 265.125778,33.2462121 266.004566,33.1022727 C266.883354,32.9583333 267.667445,32.7840909 268.356839,32.5795455 C269.046233,32.375 269.512142,32.1515152 269.754566,31.9090909 L269.754566,31.9090909 L269.754566,36.4090909 C269.754566,37.7878788 269.402294,39.0795455 268.697748,40.2840909 C267.993203,41.4886364 266.970475,42.4621212 265.629566,43.2045455 C264.288657,43.9469697 262.678809,44.3181818 260.800021,44.3181818 Z M300.245496,49.7045455 C302.790951,49.7045455 305.05989,49.3143939 307.052315,48.5340909 C309.044739,47.7537879 310.70383,46.655303 312.029587,45.2386364 C313.355345,43.8219697 314.275799,42.1666667 314.790951,40.2727273 L314.790951,40.2727273 L308.359133,39.1136364 C307.950042,40.2045455 307.359133,41.1212121 306.586406,41.8636364 C305.813678,42.6060606 304.897012,43.1628788 303.836406,43.5340909 C302.775799,43.905303 301.601557,44.0909091 300.313678,44.0909091 C298.32883,44.0909091 296.593981,43.6628788 295.109133,42.8068182 C293.624284,41.9507576 292.468981,40.7045455 291.643224,39.0681818 C290.927567,37.65 290.522028,35.9700673 290.426608,34.0283838 L290.411,33.591 L315.222769,33.5909091 L315.222769,31.1818182 C315.222769,28.0151515 314.798527,25.3219697 313.950042,23.1022727 C313.101557,20.8825758 311.942466,19.0757576 310.472769,17.6818182 C309.003072,16.2878788 307.343981,15.2651515 305.495496,14.6136364 C303.647012,13.9621212 301.737921,13.6363636 299.768224,13.6363636 C296.525799,13.6363636 293.696254,14.4015152 291.279587,15.9318182 C288.862921,17.4621212 286.984133,19.5909091 285.643224,22.3181818 C284.302315,25.0454545 283.63186,28.1969697 283.63186,31.7727273 C283.63186,35.3939394 284.302315,38.5492424 285.643224,41.2386364 C286.984133,43.9280303 288.893224,46.0113636 291.370496,47.4886364 C293.847769,48.9659091 296.806102,49.7045455 300.245496,49.7045455 Z M290.431752,28.3410436 C290.531358,26.899229 290.904879,25.5469114 291.552315,24.2840909 C292.317466,22.7916667 293.408375,21.5795455 294.825042,20.6477273 C296.241709,19.7159091 297.904587,19.25 299.813678,19.25 C301.571254,19.25 303.105345,19.6515152 304.415951,20.4545455 C305.726557,21.2575758 306.745496,22.3522727 307.472769,23.7386364 C308.200042,25.125 308.563678,26.7121212 308.563678,28.5 L308.563678,28.5 L290.423,28.5 L290.431752,28.3410436 Z M329.595516,49 L329.595516,2.45454545 L322.800062,2.45454545 L322.800062,49 L329.595516,49 Z M384.331861,49 L384.331861,42.9545455 L363.240952,42.9545455 L363.240952,2.45454545 L356.218225,2.45454545 L356.218225,49 L384.331861,49 Z M390.913686,62 C392.792474,62 394.443989,61.6818182 395.868231,61.0454545 C397.292474,60.4090909 398.519747,59.469697 399.55005,58.2272727 C400.580353,56.9848485 401.428838,55.4621212 402.095504,53.6590909 L402.095504,53.6590909 L416.527322,14.1590909 L409.186413,14.0909091 L400.345504,41.1818182 L399.981868,41.1818182 L391.140959,14.0909091 L383.868231,14.0909091 L396.640959,49.4545455 L395.80005,51.7727273 C394.936413,54.030303 393.872019,55.375 392.606868,55.8068182 C391.341716,56.2386364 389.777322,56.1969697 387.913686,55.6818182 L387.913686,55.6818182 L386.277322,61.25 C386.686413,61.4318182 387.307625,61.6022727 388.140959,61.7613636 C388.974292,61.9204545 389.898535,62 390.913686,62 Z M434.38645,49.7045455 C437.659178,49.7045455 440.515238,48.9545455 442.954632,47.4545455 C445.394026,45.9545455 447.287966,43.8560606 448.63645,41.1590909 C449.984935,38.4621212 450.659178,35.3106061 450.659178,31.7045455 C450.659178,28.0833333 449.984935,24.9166667 448.63645,22.2045455 C447.287966,19.4924242 445.394026,17.3863636 442.954632,15.8863636 C440.515238,14.3863636 437.659178,13.6363636 434.38645,13.6363636 C431.113723,13.6363636 428.257663,14.3863636 425.818269,15.8863636 C423.378875,17.3863636 421.484935,19.4924242 420.13645,22.2045455 C418.787966,24.9166667 418.113723,28.0833333 418.113723,31.7045455 C418.113723,35.3106061 418.787966,38.4621212 420.13645,41.1590909 C421.484935,43.8560606 423.378875,45.9545455 425.818269,47.4545455 C428.257663,48.9545455 431.113723,49.7045455 434.38645,49.7045455 Z M434.409178,44 C432.272814,44 430.503875,43.4393939 429.10236,42.3181818 C427.700844,41.1969697 426.662966,39.7045455 425.988723,37.8409091 C425.314481,35.9772727 424.97736,33.9242424 424.97736,31.6818182 C424.97736,29.4545455 425.314481,27.405303 425.988723,25.5340909 C426.662966,23.6628788 427.700844,22.1590909 429.10236,21.0227273 C430.503875,19.8863636 432.272814,19.3181818 434.409178,19.3181818 C436.53039,19.3181818 438.287966,19.8863636 439.681905,21.0227273 C441.075844,22.1590909 442.109935,23.6628788 442.784178,25.5340909 C443.45842,27.405303 443.795541,29.4545455 443.795541,31.6818182 C443.795541,33.9242424 443.45842,35.9772727 442.784178,37.8409091 C442.109935,39.7045455 441.075844,41.1969697 439.681905,42.3181818 C438.287966,43.4393939 436.53039,44 434.409178,44 Z M463.022836,49 L463.022836,28.2727273 C463.022836,26.4242424 463.375109,24.844697 464.079654,23.5340909 C464.7842,22.2234848 465.746321,21.2272727 466.966018,20.5454545 C468.185715,19.8636364 469.583442,19.5227273 471.1592,19.5227273 C473.46223,19.5227273 475.272836,20.2386364 476.591018,21.6704545 C477.9092,23.1022727 478.568291,25.0833333 478.568291,27.6136364 L478.568291,27.6136364 L478.568291,49 L485.363745,49 L485.363745,26.7954545 C485.363745,23.9166667 484.871321,21.5 483.886473,19.5454545 C482.901624,17.5909091 481.515261,16.1174242 479.727382,15.125 C477.939503,14.1325758 475.85617,13.6363636 473.477382,13.6363636 C470.85617,13.6363636 468.685715,14.1969697 466.966018,15.3181818 C465.246321,16.4393939 463.984958,17.9242424 463.181927,19.7727273 L463.181927,19.7727273 L462.750109,19.7727273 L462.750109,14.0909091 L456.227382,14.0909091 L456.227382,49 L463.022836,49 Z M505.431975,49.7045455 C508.250157,49.7045455 510.731217,49.2424242 512.875157,48.3181818 C515.019096,47.3939394 516.693339,46.1174242 517.897884,44.4886364 C519.102429,42.8598485 519.704702,41 519.704702,38.9090909 C519.704702,36.4393939 518.916823,34.4318182 517.341066,32.8863636 C515.765308,31.3409091 513.371369,30.1969697 510.159248,29.4545455 L510.159248,29.4545455 L504.613793,28.1818182 C502.689551,27.7272727 501.295611,27.1439394 500.431975,26.4318182 C499.568339,25.719697 499.13652,24.780303 499.13652,23.6136364 C499.13652,22.2651515 499.78046,21.1628788 501.068339,20.3068182 C502.356217,19.4507576 503.962278,19.0227273 505.88652,19.0227273 C507.295611,19.0227273 508.469854,19.25 509.409248,19.7045455 C510.348642,20.1590909 511.094854,20.7424242 511.647884,21.4545455 C512.200914,22.1666667 512.606217,22.9166667 512.863793,23.7045455 L512.863793,23.7045455 L519.022884,22.6136364 C518.325914,19.8863636 516.894096,17.7083333 514.727429,16.0795455 C512.560763,14.4507576 509.591066,13.6363636 505.818339,13.6363636 C503.197126,13.6363636 500.871369,14.0719697 498.841066,14.9431818 C496.810763,15.8143939 495.219854,17.0227273 494.068339,18.5681818 C492.916823,20.1136364 492.341066,21.9166667 492.341066,23.9772727 C492.341066,26.4621212 493.117581,28.5151515 494.670611,30.1363636 C496.223642,31.7575758 498.628945,32.9393939 501.88652,33.6818182 L501.88652,33.6818182 L507.795611,34.9772727 C509.462278,35.3560606 510.700914,35.9166667 511.51152,36.6590909 C512.322126,37.4015152 512.727429,38.3181818 512.727429,39.4090909 C512.727429,40.7575758 512.060763,41.8977273 510.727429,42.8295455 C509.394096,43.7613636 507.613793,44.2272727 505.38652,44.2272727 C503.341066,44.2272727 501.681975,43.7916667 500.409248,42.9204545 C499.13652,42.0492424 498.295611,40.7575758 497.88652,39.0454545 L497.88652,39.0454545 L491.318339,40.0454545 C491.878945,43.1363636 493.394096,45.5189394 495.863793,47.1931818 C498.33349,48.8674242 501.522884,49.7045455 505.431975,49.7045455 Z" id="I’mMichaelLyons" fill="#303030" fill-rule="nonzero"></path>
    </g>
</svg>