<?xml version="1.0" encoding="UTF-8"?>
<svg width="276px" height="48px" viewBox="0 0 276 48" version="1.1" xmlns="http://www.w3.org/2000/svg" xmlns:xlink="http://www.w3.org/1999/xlink">
    <title>Welcome_Name_03</title>
    <g id="Page-1" stroke="none" stroke-width="1" fill="none" fill-rule="evenodd">
        <path d="M20.1612066,47 L29.9566612,12.1363636 L30.3202975,12.1363636 L40.1157521,47 L47.1839339,47 L60.1157521,0.454545455 L52.7066612,0.454545455 L43.6612066,36.5227273 L43.2293884,36.5227273 L33.7975702,0.454545455 L26.4793884,0.454545455 L17.0475702,36.5 L16.6157521,36.5 L7.54757025,0.454545455 L0.16120661,0.454545455 L13.0702975,47 L20.1612066,47 Z M77.4067743,47.7045455 C79.9522289,47.7045455 82.2211683,47.3143939 84.2135925,46.5340909 C86.2060168,45.7537879 87.8651077,44.655303 89.1908653,43.2386364 C90.5166228,41.8219697 91.4370774,40.1666667 91.9522289,38.2727273 L91.9522289,38.2727273 L85.5204107,37.1136364 C85.1113198,38.2045455 84.5204107,39.1212121 83.7476834,39.8636364 C82.9749562,40.6060606 82.0582895,41.1628788 80.9976834,41.5340909 C79.9370774,41.905303 78.762835,42.0909091 77.4749562,42.0909091 C75.4901077,42.0909091 73.7552592,41.6628788 72.2704107,40.8068182 C70.7855622,39.9507576 69.6302592,38.7045455 68.8045016,37.0681818 C68.0888451,35.65 67.6833063,33.9700673 67.5878855,32.0283838 L67.572,31.591 L92.3840471,31.5909091 L92.3840471,29.1818182 C92.3840471,26.0151515 91.9598047,23.3219697 91.1113198,21.1022727 C90.262835,18.8825758 89.103744,17.0757576 87.6340471,15.6818182 C86.1643501,14.2878788 84.5052592,13.2651515 82.6567743,12.6136364 C80.8082895,11.9621212 78.8991986,11.6363636 76.9295016,11.6363636 C73.6870774,11.6363636 70.8575319,12.4015152 68.4408653,13.9318182 C66.0241986,15.4621212 64.1454107,17.5909091 62.8045016,20.3181818 C61.4635925,23.0454545 60.793138,26.1969697 60.793138,29.7727273 C60.793138,33.3939394 61.4635925,36.5492424 62.8045016,39.2386364 C64.1454107,41.9280303 66.0545016,44.0113636 68.5317743,45.4886364 C71.0090471,46.9659091 73.9673804,47.7045455 77.4067743,47.7045455 Z M67.5930304,26.3410436 C67.6926359,24.899229 68.0661566,23.5469114 68.7135925,22.2840909 C69.478744,20.7916667 70.5696531,19.5795455 71.9863198,18.6477273 C73.4029865,17.7159091 75.0658653,17.25 76.9749562,17.25 C78.7325319,17.25 80.2666228,17.6515152 81.5772289,18.4545455 C82.887835,19.2575758 83.9067743,20.3522727 84.6340471,21.7386364 C85.3613198,23.125 85.7249562,24.7121212 85.7249562,26.5 L85.7249562,26.5 L67.585,26.5 L67.5930304,26.3410436 Z M106.756794,47 L106.756794,0.454545455 L99.9613398,0.454545455 L99.9613398,47 L106.756794,47 Z M129.993203,47.7045455 C132.750779,47.7045455 135.156082,47.1969697 137.209113,46.1818182 C139.262143,45.1666667 140.902294,43.7727273 142.129567,42 C143.35684,40.2272727 144.091688,38.2121212 144.334113,35.9545455 L144.334113,35.9545455 L137.720476,35.9545455 C137.432597,37.2121212 136.92881,38.2878788 136.209113,39.1818182 C135.489416,40.0757576 134.603052,40.7613636 133.550022,41.2386364 C132.496991,41.7159091 131.326537,41.9545455 130.038658,41.9545455 C128.114416,41.9545455 126.443961,41.4469697 125.027294,40.4318182 C123.610628,39.4166667 122.515931,37.9848485 121.743203,36.1363636 C120.970476,34.2878788 120.584113,32.0909091 120.584113,29.5454545 C120.584113,27.0606061 120.978052,24.905303 121.765931,23.0795455 C122.55381,21.2537879 123.656082,19.844697 125.072749,18.8522727 C126.489416,17.8598485 128.144719,17.3636364 130.038658,17.3636364 C132.205325,17.3636364 133.936385,17.9545455 135.23184,19.1363636 C136.527294,20.3181818 137.35684,21.7272727 137.720476,23.3636364 L137.720476,23.3636364 L144.334113,23.3636364 C144.091688,21.0151515 143.330325,18.9621212 142.050022,17.2045455 C140.769719,15.4469697 139.091688,14.0795455 137.015931,13.1022727 C134.940173,12.125 132.576537,11.6363636 129.925022,11.6363636 C126.637143,11.6363636 123.781082,12.4015152 121.35684,13.9318182 C118.932597,15.4621212 117.05381,17.5871212 115.720476,20.3068182 C114.387143,23.0265152 113.720476,26.1590909 113.720476,29.7045455 C113.720476,33.2045455 114.371991,36.3106061 115.675022,39.0227273 C116.978052,41.7348485 118.845476,43.8598485 121.277294,45.3977273 C123.709113,46.9356061 126.614416,47.7045455 129.993203,47.7045455 Z M166.338696,47.7045455 C169.611423,47.7045455 172.467484,46.9545455 174.906878,45.4545455 C177.346271,43.9545455 179.240211,41.8560606 180.588696,39.1590909 C181.937181,36.4621212 182.611423,33.3106061 182.611423,29.7045455 C182.611423,26.0833333 181.937181,22.9166667 180.588696,20.2045455 C179.240211,17.4924242 177.346271,15.3863636 174.906878,13.8863636 C172.467484,12.3863636 169.611423,11.6363636 166.338696,11.6363636 C163.065968,11.6363636 160.209908,12.3863636 157.770514,13.8863636 C155.33112,15.3863636 153.437181,17.4924242 152.088696,20.2045455 C150.740211,22.9166667 150.065968,26.0833333 150.065968,29.7045455 C150.065968,33.3106061 150.740211,36.4621212 152.088696,39.1590909 C153.437181,41.8560606 155.33112,43.9545455 157.770514,45.4545455 C160.209908,46.9545455 163.065968,47.7045455 166.338696,47.7045455 Z M166.361423,42 C164.225059,42 162.45612,41.4393939 161.054605,40.3181818 C159.65309,39.1969697 158.615211,37.7045455 157.940968,35.8409091 C157.266726,33.9772727 156.929605,31.9242424 156.929605,29.6818182 C156.929605,27.4545455 157.266726,25.405303 157.940968,23.5340909 C158.615211,21.6628788 159.65309,20.1590909 161.054605,19.0227273 C162.45612,17.8863636 164.225059,17.3181818 166.361423,17.3181818 C168.482635,17.3181818 170.240211,17.8863636 171.63415,19.0227273 C173.02809,20.1590909 174.062181,21.6628788 174.736423,23.5340909 C175.410665,25.405303 175.747787,27.4545455 175.747787,29.6818182 C175.747787,31.9242424 175.410665,33.9772727 174.736423,35.8409091 C174.062181,37.7045455 173.02809,39.1969697 171.63415,40.3181818 C170.240211,41.4393939 168.482635,42 166.361423,42 Z M196.175082,47 L196.175082,25.4772727 C196.175082,23.9015152 196.504627,22.5151515 197.163718,21.3181818 C197.822809,20.1212121 198.694021,19.1856061 199.777354,18.5113636 C200.860688,17.8371212 202.046294,17.5 203.334172,17.5 C205.228112,17.5 206.765991,18.0757576 207.947809,19.2272727 C209.129627,20.3787879 209.720536,21.9015152 209.720536,23.7954545 L209.720536,23.7954545 L209.720536,47 L216.493263,47 L216.493263,24.75 C216.493263,22.6287879 217.1069,20.8901515 218.334172,19.5340909 C219.561445,18.1780303 221.281142,17.5 223.493263,17.5 C225.281142,17.5 226.819021,18.030303 228.1069,19.0909091 C229.394779,20.1515152 230.038718,21.8636364 230.038718,24.2272727 L230.038718,24.2272727 L230.038718,47 L236.834172,47 L236.834172,23.5909091 C236.834172,19.5909091 235.830385,16.5984848 233.822809,14.6136364 C231.815233,12.6287879 229.228112,11.6363636 226.061445,11.6363636 C223.546294,11.6363636 221.379627,12.1931818 219.561445,13.3068182 C217.743263,14.4204545 216.417506,15.9090909 215.584172,17.7727273 L215.584172,17.7727273 L215.220536,17.7727273 C214.46296,15.8636364 213.292506,14.3636364 211.709172,13.2727273 C210.125839,12.1818182 208.167506,11.6363636 205.834172,11.6363636 C203.531142,11.6363636 201.553869,12.1780303 199.902354,13.2613636 C198.250839,14.344697 197.061445,15.8484848 196.334172,17.7727273 L196.334172,17.7727273 L195.902354,17.7727273 L195.902354,12.0909091 L189.379627,12.0909091 L189.379627,47 L196.175082,47 Z M260.170592,47.7045455 C262.716046,47.7045455 264.984986,47.3143939 266.97741,46.5340909 C268.969834,45.7537879 270.628925,44.655303 271.954683,43.2386364 C273.28044,41.8219697 274.200895,40.1666667 274.716046,38.2727273 L274.716046,38.2727273 L268.284228,37.1136364 C267.875137,38.2045455 267.284228,39.1212121 266.511501,39.8636364 C265.738773,40.6060606 264.822107,41.1628788 263.761501,41.5340909 C262.700895,41.905303 261.526652,42.0909091 260.238773,42.0909091 C258.253925,42.0909091 256.519076,41.6628788 255.034228,40.8068182 C253.549379,39.9507576 252.394076,38.7045455 251.568319,37.0681818 C250.852662,35.65 250.447124,33.9700673 250.351703,32.0283838 L250.336,31.591 L275.147864,31.5909091 L275.147864,29.1818182 C275.147864,26.0151515 274.723622,23.3219697 273.875137,21.1022727 C273.026652,18.8825758 271.867561,17.0757576 270.397864,15.6818182 C268.928167,14.2878788 267.269076,13.2651515 265.420592,12.6136364 C263.572107,11.9621212 261.663016,11.6363636 259.693319,11.6363636 C256.450895,11.6363636 253.621349,12.4015152 251.204683,13.9318182 C248.788016,15.4621212 246.909228,17.5909091 245.568319,20.3181818 C244.22741,23.0454545 243.556955,26.1969697 243.556955,29.7727273 C243.556955,33.3939394 244.22741,36.5492424 245.568319,39.2386364 C246.909228,41.9280303 248.818319,44.0113636 251.295592,45.4886364 C253.772864,46.9659091 256.731198,47.7045455 260.170592,47.7045455 Z M250.356848,26.3410436 C250.456453,24.899229 250.829974,23.5469114 251.47741,22.2840909 C252.242561,20.7916667 253.33347,19.5795455 254.750137,18.6477273 C256.166804,17.7159091 257.829683,17.25 259.738773,17.25 C261.496349,17.25 263.03044,17.6515152 264.341046,18.4545455 C265.651652,19.2575758 266.670592,20.3522727 267.397864,21.7386364 C268.125137,23.125 268.488773,24.7121212 268.488773,26.5 L268.488773,26.5 L250.348,26.5 L250.356848,26.3410436 Z" id="Welcome" fill="#303030" fill-rule="nonzero"></path>
    </g>
</svg>