<?xml version="1.0" encoding="UTF-8"?>
<svg width="379px" height="46px" viewBox="0 0 379 46" version="1.1" xmlns="http://www.w3.org/2000/svg" xmlns:xlink="http://www.w3.org/1999/xlink">
    <title>Slice 1</title>
    <g id="Page-1" stroke="none" stroke-width="1" fill="none" fill-rule="evenodd">
        <g id="Group-6">
            <polygon id="Fill-4" fill="#F26724" points="197.56608 3.14312 204.02928 3.14312 204.02928 39.58232 223.16928 39.58232 223.16928 45.35672 197.56608 45.35672"></polygon>
            <g id="Group-23">
                <path d="M237.1296,32.0096 L221.4,3.1424 L228.5328,3.1424 L237.9216,20.5256 C239.2032,22.8848 240.42,26.6096 240.42,26.6096 C240.42,26.6096 241.7016,22.8848 242.9208,20.5256 L252.0048,3.1424 L258.6504,3.1424 L243.5928,31.6376 L243.5928,45.356 L237.1296,45.356 L237.1296,32.0096 Z" id="Fill-5" fill="#F26724"></path>
                <path d="M259.80456,24.24992 C259.80456,11.64752 269.31576,2.58512 281.20296,2.58512 C293.03016,2.58512 302.54136,11.64752 302.54136,24.24992 C302.54136,36.85232 293.03016,45.91472 281.20296,45.91472 C269.31576,45.91472 259.80456,36.85232 259.80456,24.24992 M295.95576,24.24992 C295.95576,15.24992 289.85976,8.48192 281.20296,8.48192 C272.54616,8.48192 266.39016,15.24992 266.39016,24.24992 C266.39016,33.24992 272.54616,40.01792 281.20296,40.01792 C289.85976,40.01792 295.95576,33.24992 295.95576,24.24992" id="Fill-7" fill="#F26724"></path>
                <path d="M320.09448,20.71112 C318.44808,18.91112 316.19208,15.99272 316.19208,15.99272 C316.19208,15.99272 316.61928,19.47032 316.61928,22.07672 L316.61928,45.35672 L310.64568,45.35672 L310.64568,2.70872 L311.49768,2.70872 L334.36008,27.72632 C335.94408,29.46392 338.20008,32.44472 338.20008,32.44472 C338.20008,32.44472 337.77288,28.71992 337.77288,26.36072 L337.77288,3.14312 L343.74648,3.14312 L343.74648,45.79112 L342.95448,45.79112 L320.09448,20.71112 Z" id="Fill-9" fill="#F26724"></path>
                <path d="M350.02368,37.16144 L355.32768,34.18304 C357.27888,37.47104 359.77728,40.07984 364.83648,40.07984 C369.04368,40.07984 372.03168,37.78304 372.03168,34.30544 C372.03168,30.64304 369.59328,29.03024 365.08128,26.98064 L362.33808,25.73984 C356.30208,23.00864 352.64448,19.90544 352.64448,13.38704 C352.64448,7.11584 357.39888,2.64704 364.28928,2.64704 C369.77568,2.64704 373.49568,4.75664 375.99408,9.28784 L370.93248,12.45584 C369.34848,9.66224 367.51968,8.35904 364.28928,8.35904 C360.99648,8.35904 358.92528,10.40624 358.92528,13.26224 C358.92528,16.42784 360.69168,17.85584 364.89888,19.71824 L367.57968,20.95904 C374.65248,24.12464 378.43248,27.47744 378.43248,34.24544 C378.43248,41.63024 372.76368,45.91424 364.95888,45.91424 C357.09408,45.91424 352.33968,41.94224 350.02368,37.16144" id="Fill-11" fill="#F26724"></path>
                <path d="M0,2.64728 L0.6096,2.64728 L19.8744,27.16808 L39.0168,2.64728 L39.6864,2.64728 L39.6864,45.35528 L35.4192,45.35528 L35.4192,17.48408 C35.4192,15.55928 35.604,12.64088 35.604,12.64088 C35.604,12.64088 34.0176,15.37208 32.676,17.04968 L20.1168,33.18968 L19.3872,33.18968 L7.0104,17.04968 C5.6688,15.37208 4.0224,12.64088 4.0224,12.64088 C4.0224,12.64088 4.2672,15.55928 4.2672,17.48408 L4.2672,45.35528 L0,45.35528 L0,2.64728 Z" id="Fill-13" fill="#000000"></path>
                <path d="M61.50648,32.50568 C61.50648,24.99368 67.17528,19.09688 74.61288,19.09688 C79.12488,19.09688 82.23288,20.83448 84.55128,23.69048 L81.50088,26.23688 C79.97928,24.18728 77.78328,22.94648 74.61288,22.94648 C69.24888,22.94648 65.89608,27.04328 65.89608,32.50568 C65.89608,37.96808 69.24888,42.06728 74.61288,42.06728 C78.08808,42.06728 80.28408,40.63928 81.86808,38.71448 L84.79368,41.25848 C82.41768,44.17688 79.30728,45.85208 74.61288,45.85208 C67.17528,45.85208 61.50648,40.01768 61.50648,32.50568" id="Fill-15" fill="#000000"></path>
                <path d="M91.55928,0.536 L95.82648,0.536 L95.82648,24.6848 C97.41048,21.2696 100.70328,19.0976 104.78808,19.0976 C110.39688,19.0976 114.23688,23.0072 114.23688,29.7128 L114.23688,45.356 L109.96968,45.356 L109.96968,30.2096 C109.96968,25.6784 107.89848,23.0696 103.69128,23.0696 C98.99688,23.0696 95.82648,26.1128 95.82648,31.2032 L95.82648,45.356 L91.55928,45.356 L91.55928,0.536 Z" id="Fill-17" fill="#000000"></path>
                <path d="M138.68136,29.65064 C138.68136,24.68504 136.48776,22.76024 132.76776,22.76024 C129.23256,22.76024 126.97656,24.31304 125.39016,26.48504 L122.76936,24.06344 C124.96536,21.02264 128.25576,19.09784 133.07256,19.09784 C138.68136,19.09784 142.94856,22.44824 142.94856,29.58824 L142.94856,45.35624 L138.68136,45.35624 L138.86376,41.50664 C137.15736,44.11544 134.53656,45.85304 130.51176,45.85304 C125.14776,45.85304 121.24536,43.36904 121.24536,38.03144 C121.24536,32.75384 125.51256,30.27224 130.81656,30.27224 L138.68136,30.27224 L138.68136,29.65064 Z M131.12136,33.56264 C127.89096,33.56264 125.39016,34.74104 125.39016,37.84424 C125.39016,40.76264 127.52376,42.31304 131.48616,42.31304 C135.38856,42.31304 138.68136,40.14104 138.68136,36.78824 L138.68136,33.56264 L131.12136,33.56264 Z" id="Fill-19" fill="#000000"></path>
                <path d="M163.7952,42.1904 C167.5752,42.1904 170.136,40.6376 171.7824,38.7752 L174.4032,41.384 C172.0872,44.0528 168.7344,45.8528 163.7952,45.8528 C155.5056,45.8528 150.1392,40.0184 150.1392,32.5064 C150.1392,24.9944 155.8104,19.0976 163.1856,19.0976 C171.2952,19.0976 176.172,25.4288 175.8672,33.9344 L154.4064,33.9344 C154.956,38.8376 158.2488,42.1904 163.7952,42.1904 L163.7952,42.1904 Z M171.5976,30.644 C171.2328,26.2352 168.4896,22.76 163.1856,22.76 C158.3712,22.76 155.1384,25.9256 154.4688,30.644 L171.5976,30.644 Z" id="Fill-21" fill="#000000"></path>
            </g>
            <polygon id="Fill-24" fill="#000000" points="183.4848 45.356 187.752 45.356 187.752 3.1424 183.4848 3.1424"></polygon>
            <polygon id="Fill-25" fill="#000000" points="49.6824 45.356 53.9496 45.356 53.9496 19.6568 49.6824 19.6568"></polygon>
            <g id="Group-30" transform="translate(49.000000, 6.200000)">
                <path d="M0.46256,2.95776 C0.46256,1.55616 1.59056,0.54096 2.81456,0.54096 C4.03616,0.54096 5.16416,1.55616 5.16416,2.95776 C5.16416,4.35936 4.03616,5.32656 2.81456,5.32656 C1.59056,5.32656 0.46256,4.35936 0.46256,2.95776" id="Fill-26" fill="#F26724"></path>
                <path d="M0.46256,2.95776 C0.46256,1.55616 1.59056,0.54096 2.81456,0.54096 C4.03616,0.54096 5.16416,1.55616 5.16416,2.95776 C5.16416,4.35936 4.03616,5.32656 2.81456,5.32656 C1.59056,5.32656 0.46256,4.35936 0.46256,2.95776 Z" id="Stroke-28" stroke="#F26724" stroke-width="3.2616"></path>
            </g>
        </g>
    </g>
</svg>